<svg width="238" height="73" viewBox="0 0 238 73" fill="none" xmlns="http://www.w3.org/2000/svg">
<path d="M28.3164 35.7188C29.8138 36.5 31.3112 37.3464 32.8086 38.2578C34.3711 39.1693 35.8034 40.0482 37.1055 40.8945C38.4076 41.6758 39.4818 42.4245 40.3281 43.1406C41.2396 43.7917 41.8255 44.3125 42.0859 44.7031C42.4115 45.224 42.5742 46.0378 42.5742 47.1445C42.5742 48.1862 42.4766 49.3581 42.2812 50.6602C42.151 51.8971 41.9232 53.1341 41.5977 54.3711C41.2721 55.543 40.9141 56.487 40.5234 57.2031C40.0677 58.1146 39.026 59.2865 37.3984 60.7188C35.8359 62.151 34.0781 63.5833 32.125 65.0156C30.1719 66.4479 28.2513 67.7174 26.3633 68.8242C24.5404 69.931 23.1406 70.6146 22.1641 70.875C21.4479 71.0703 20.3737 71.2656 18.9414 71.4609C17.5742 71.6562 16.1419 71.819 14.6445 71.9492C13.1471 72.0794 11.7799 72.1771 10.543 72.2422C9.37109 72.2422 8.65495 72.1771 8.39453 72.0469C7.8737 71.7214 7.41797 71.2331 7.02734 70.582C6.70182 69.931 6.53906 69.0846 6.53906 68.043C6.66927 65.7643 6.92969 64.2018 7.32031 63.3555C7.45052 63.1602 7.61328 63.0625 7.80859 63.0625C8.00391 62.9974 8.32943 62.9648 8.78516 62.9648C9.24089 62.9648 9.82682 62.9648 10.543 62.9648C11.2591 62.9648 12.2031 62.9323 13.375 62.8672C13.0495 59.5469 12.7565 56.3893 12.4961 53.3945C12.2357 50.3997 12.0078 47.763 11.8125 45.4844C11.5521 42.8151 11.3568 40.3086 11.2266 37.9648C11.0964 35.6862 10.901 33.1471 10.6406 30.3477C10.4453 27.9388 10.2174 25.1393 9.95703 21.9492C9.69661 18.7591 9.40365 15.3086 9.07812 11.5977C8.49219 11.5977 7.80859 11.5977 7.02734 11.5977C6.24609 11.5977 5.46484 11.5977 4.68359 11.5977C3.96745 11.5326 3.34896 11.4674 2.82812 11.4023C2.24219 11.2721 1.88411 11.1094 1.75391 10.9141C1.49349 10.5234 1.29818 9.80729 1.16797 8.76562C1.03776 7.65885 0.972656 6.58464 0.972656 5.54297C0.972656 4.4362 1.16797 3.36198 1.55859 2.32031C1.94922 1.21354 2.40495 0.497396 2.92578 0.171875C3.05599 0.106771 3.57682 0.106771 4.48828 0.171875C5.39974 0.171875 6.50651 0.269531 7.80859 0.464844C9.11068 0.595052 10.5104 0.790365 12.0078 1.05078C13.5703 1.24609 15.0352 1.47396 16.4023 1.73438C17.7695 1.92969 18.974 2.125 20.0156 2.32031C21.0573 2.51562 21.7734 2.64583 22.1641 2.71094C22.8151 2.84115 24.0521 3.19922 25.875 3.78516C27.763 4.30599 29.7812 4.92448 31.9297 5.64062C34.0781 6.35677 36.1289 7.17057 38.082 8.08203C40.0352 8.92839 41.4023 9.77474 42.1836 10.6211C42.5091 10.9466 42.8021 11.8581 43.0625 13.3555C43.388 14.8529 43.6159 16.513 43.7461 18.3359C43.9414 20.1589 44.0065 21.8841 43.9414 23.5117C43.9414 25.0742 43.7786 26.1159 43.4531 26.6367C43.1927 27.0273 42.2812 27.7109 40.7188 28.6875C39.1562 29.6641 37.431 30.6732 35.543 31.7148C33.3945 32.8867 30.9857 34.2214 28.3164 35.7188ZM20.8945 33.7656C21.7409 33.375 22.8802 32.5938 24.3125 31.4219C25.8099 30.25 27.2747 28.9479 28.707 27.5156C30.2044 26.0182 31.474 24.5208 32.5156 23.0234C33.6224 21.4609 34.1758 20.1263 34.1758 19.0195C34.1758 18.694 33.8177 18.2708 33.1016 17.75C32.4505 17.2292 31.5391 16.7083 30.3672 16.1875C29.1953 15.6667 27.7956 15.1458 26.168 14.625C24.6055 14.0391 22.9128 13.5182 21.0898 13.0625L20.8945 33.7656ZM20.7969 61.793C22.6198 61.4023 24.3451 60.7839 25.9727 59.9375C27.6003 59.0911 29.0326 58.1797 30.2695 57.2031C31.5065 56.1615 32.4831 55.1198 33.1992 54.0781C33.9154 53.0365 34.2734 52.0924 34.2734 51.2461C34.2734 50.3997 33.7201 49.4557 32.6133 48.4141C31.5716 47.3724 30.3021 46.3307 28.8047 45.2891C27.3724 44.2474 25.9076 43.3034 24.4102 42.457C22.9128 41.6107 21.7409 40.9922 20.8945 40.6016L20.7969 61.793ZM69.4297 20.582C69.8854 20.9727 70.3086 21.7214 70.6992 22.8281C71.1549 23.9349 71.5456 25.2695 71.8711 26.832C72.1966 28.3945 72.4896 30.0872 72.75 31.9102C73.0104 33.7331 73.2383 35.5234 73.4336 37.2812C73.6289 39.0391 73.7591 40.6992 73.8242 42.2617C73.9544 43.7591 74.0521 44.9961 74.1172 45.9727C74.1823 47.1445 74.2148 48.3815 74.2148 49.6836C74.2799 50.9206 74.2799 52.125 74.2148 53.2969C74.2148 54.4036 74.1497 55.4128 74.0195 56.3242C73.9544 57.2357 73.8242 57.9193 73.6289 58.375C73.2383 59.3516 72.5547 60.0352 71.5781 60.4258C70.6667 60.7513 69.625 60.9792 68.4531 61.1094C67.8672 61.1745 66.8581 61.207 65.4258 61.207C64.0586 61.1419 62.5612 61.0768 60.9336 61.0117C59.3711 60.8815 57.8737 60.7513 56.4414 60.6211C55.0091 60.4909 53.9349 60.3607 53.2188 60.2305C51.7865 59.9049 50.7448 59.4818 50.0938 58.9609C49.5078 58.4401 48.9219 57.6914 48.3359 56.7148C48.1406 56.3242 47.9779 55.3477 47.8477 53.7852C47.7174 52.1576 47.6198 50.237 47.5547 48.0234C47.5547 45.7448 47.5872 43.3034 47.6523 40.6992C47.7174 38.0951 47.8151 35.6211 47.9453 33.2773C48.1406 30.9336 48.3359 28.8828 48.5312 27.125C48.7917 25.3672 49.1172 24.1953 49.5078 23.6094C50.1589 22.6979 51.2656 21.8516 52.8281 21.0703C54.4557 20.2891 55.9206 19.6706 57.2227 19.2148C57.8737 19.0195 58.7201 18.8893 59.7617 18.8242C60.8685 18.694 62.0078 18.694 63.1797 18.8242C64.4167 18.8893 65.5885 19.0846 66.6953 19.4102C67.8021 19.6706 68.7135 20.0612 69.4297 20.582ZM63.9609 50.8555C64.0911 50.5951 64.2214 49.8138 64.3516 48.5117C64.5469 47.1445 64.6771 45.5169 64.7422 43.6289C64.8724 41.7409 64.9375 39.7227 64.9375 37.5742C65.0026 35.4258 65.0352 33.4401 65.0352 31.6172C65.0352 29.7943 64.9701 28.2643 64.8398 27.0273C64.7096 25.7253 64.5469 24.9766 64.3516 24.7812C64.026 24.5208 63.5378 24.4232 62.8867 24.4883C62.3008 24.4883 61.6823 24.5859 61.0312 24.7812C60.3802 24.9115 59.7943 25.1068 59.2734 25.3672C58.7526 25.5625 58.3945 25.7578 58.1992 25.9531C57.3529 26.6693 56.8971 27.8411 56.832 29.4688C56.832 29.9245 56.7669 31.2266 56.6367 33.375C56.5716 35.4583 56.5391 37.737 56.5391 40.2109C56.5391 42.6198 56.5716 44.8659 56.6367 46.9492C56.7669 49.0326 56.9948 50.3021 57.3203 50.7578C57.6458 51.2135 58.1016 51.5716 58.6875 51.832C59.3385 52.0273 59.9896 52.125 60.6406 52.125C61.3568 52.125 62.0078 52.0273 62.5938 51.832C63.2448 51.5716 63.7005 51.2461 63.9609 50.8555ZM107.223 33.082C107.223 34.1237 107.092 35.6211 106.832 37.5742C106.637 39.5273 106.344 41.6758 105.953 44.0195C105.562 46.2982 105.139 48.6745 104.684 51.1484C104.293 53.5573 103.87 55.7708 103.414 57.7891C103.023 59.8073 102.665 61.5 102.34 62.8672C102.079 64.2344 101.917 64.9831 101.852 65.1133C101.721 65.3086 101.363 65.4388 100.777 65.5039C100.257 65.5039 99.638 65.4388 98.9219 65.3086C98.2708 65.1784 97.6523 64.9831 97.0664 64.7227C96.5456 64.4622 96.2201 64.1367 96.0898 63.7461C96.0247 63.4857 95.9922 62.5742 95.9922 61.0117C96.0573 59.4492 96.1224 57.5938 96.1875 55.4453C96.3177 53.2318 96.4479 50.888 96.5781 48.4141C96.7083 45.875 96.8385 43.5312 96.9688 41.3828C97.1641 39.1693 97.2943 37.2812 97.3594 35.7188C97.4896 34.1562 97.5547 33.2122 97.5547 32.8867C97.5547 31.7148 97.4245 30.6081 97.1641 29.5664C96.9688 28.4596 96.7083 27.5156 96.3828 26.7344C96.0573 25.9531 95.6667 25.3672 95.2109 24.9766C94.8203 24.5208 94.4622 24.3581 94.1367 24.4883C93.2904 24.6185 92.5742 24.8464 91.9883 25.1719C91.4023 25.4323 90.9141 25.7253 90.5234 26.0508C90.0677 26.4414 89.7096 26.8971 89.4492 27.418C89.3841 27.5482 89.2539 27.9388 89.0586 28.5898C88.9284 29.2409 88.8633 29.9896 88.8633 30.8359C88.8633 31.0964 88.8633 32.0404 88.8633 33.668C88.8633 35.2305 88.8307 37.1185 88.7656 39.332C88.7656 41.5456 88.7331 43.9544 88.668 46.5586C88.668 49.0977 88.6354 51.474 88.5703 53.6875C88.5703 55.8359 88.5378 57.6914 88.4727 59.2539C88.4076 60.8164 88.3424 61.6953 88.2773 61.8906C88.1471 62.2812 87.8216 62.8346 87.3008 63.5508C86.7799 64.2018 86.194 64.8203 85.543 65.4062C84.8919 65.9922 84.2734 66.4479 83.6875 66.7734C83.1016 67.0339 82.7109 66.9688 82.5156 66.5781C82.3203 66.3828 82.125 65.4388 81.9297 63.7461C81.7344 61.9883 81.5065 59.8724 81.2461 57.3984C81.0508 54.8594 80.8229 52.125 80.5625 49.1953C80.3021 46.2005 80.0742 43.3359 79.8789 40.6016C79.6836 37.8672 79.5208 35.3932 79.3906 33.1797C79.2604 30.9661 79.1628 29.3711 79.0977 28.3945C79.0326 27.0273 78.9674 25.4974 78.9023 23.8047C78.8372 22.0469 78.7721 20.4193 78.707 18.9219C78.707 17.3594 78.707 16.0247 78.707 14.918C78.7721 13.7461 78.9023 13.0299 79.0977 12.7695C79.2279 12.5091 79.651 12.444 80.3672 12.5742C81.1484 12.7044 81.9622 12.9648 82.8086 13.3555C83.7201 13.681 84.5664 14.1042 85.3477 14.625C86.1289 15.0807 86.6497 15.5365 86.9102 15.9922C87.0404 16.3828 87.2031 16.8385 87.3984 17.3594C87.5938 17.8151 87.7565 18.5964 87.8867 19.7031C88.9935 19.0521 90.1979 18.4661 91.5 17.9453C92.8021 17.3594 94.0716 16.9362 95.3086 16.6758C96.6107 16.3503 97.8477 16.2526 99.0195 16.3828C100.191 16.4479 101.233 16.7734 102.145 17.3594C102.73 17.8151 103.316 18.5964 103.902 19.7031C104.553 20.8099 105.107 22.112 105.562 23.6094C106.083 25.1068 106.474 26.7018 106.734 28.3945C107.06 30.0221 107.223 31.5846 107.223 33.082ZM127.926 40.1133C128.447 41.0247 129.228 42.3919 130.27 44.2148C131.376 46.0378 132.548 48.056 133.785 50.2695C135.022 52.4831 136.292 54.7617 137.594 57.1055C138.896 59.4492 140.035 61.5977 141.012 63.5508C141.988 65.5039 142.737 67.1315 143.258 68.4336C143.844 69.7357 144.039 70.4518 143.844 70.582C143.518 70.7773 143.03 70.875 142.379 70.875C141.728 70.8099 141.044 70.7122 140.328 70.582C139.612 70.3867 138.928 70.1589 138.277 69.8984C137.691 69.5729 137.268 69.2799 137.008 69.0195C134.794 66.0247 132.809 63.2578 131.051 60.7188C129.358 58.1797 127.861 55.9661 126.559 54.0781C125.061 51.9297 123.727 49.944 122.555 48.1211C122.359 51.181 122.164 54.0781 121.969 56.8125C121.773 59.5469 121.578 61.9883 121.383 64.1367C121.188 66.2201 120.96 67.9128 120.699 69.2148C120.504 70.4518 120.309 71.1029 120.113 71.168C119.592 71.2331 119.039 71.0378 118.453 70.582C117.867 70.0612 117.314 69.4427 116.793 68.7266C116.272 67.9453 115.784 67.1641 115.328 66.3828C114.938 65.5365 114.71 64.8203 114.645 64.2344C114.254 58.3099 113.928 53.0039 113.668 48.3164C113.473 43.5638 113.277 39.3646 113.082 35.7188C112.952 32.0729 112.854 28.9154 112.789 26.2461C112.789 23.5117 112.789 21.2005 112.789 19.3125C112.789 14.8203 112.919 11.7279 113.18 10.0352C113.44 8.73307 114.026 7.49609 114.938 6.32422C115.914 5.08724 116.956 4.01302 118.062 3.10156C119.169 2.1901 120.211 1.50651 121.188 1.05078C122.164 0.595052 122.815 0.464844 123.141 0.660156C123.401 0.855469 123.564 1.99479 123.629 4.07812C123.694 6.16146 123.694 8.83073 123.629 12.0859C123.629 15.276 123.564 18.8568 123.434 22.8281C123.303 26.7995 123.173 30.7708 123.043 34.7422C124.215 32.9844 125.354 31.2266 126.461 29.4688C127.568 27.6458 128.609 26.0182 129.586 24.5859C130.562 23.0885 131.409 21.8516 132.125 20.875C132.906 19.8984 133.492 19.3125 133.883 19.1172C134.339 18.8568 135.055 18.6615 136.031 18.5312C137.073 18.3359 138.115 18.2057 139.156 18.1406C140.198 18.0755 141.142 18.1081 141.988 18.2383C142.9 18.3685 143.453 18.5964 143.648 18.9219C143.844 19.1172 143.486 19.931 142.574 21.3633C141.663 22.7305 140.458 24.4232 138.961 26.4414C137.464 28.4596 135.738 30.6732 133.785 33.082C131.832 35.4909 129.879 37.8346 127.926 40.1133ZM152.145 45.7773C153.186 45.3867 154.358 44.9635 155.66 44.5078C157.027 43.987 158.329 43.5312 159.566 43.1406C160.803 42.6849 161.91 42.2943 162.887 41.9688C163.863 41.6432 164.579 41.3828 165.035 41.1875C164.97 40.4714 164.872 39.6576 164.742 38.7461C164.677 37.7695 164.579 36.8581 164.449 36.0117C164.319 35.1003 164.156 34.319 163.961 33.668C163.766 33.0169 163.57 32.6263 163.375 32.4961C162.854 32.3008 161.975 32.138 160.738 32.0078C159.566 31.8125 158.329 31.8451 157.027 32.1055C155.79 32.3659 154.651 32.8542 153.609 33.5703C152.568 34.2865 151.982 35.4258 151.852 36.9883C151.721 38.0299 151.689 39.332 151.754 40.8945C151.819 42.457 151.949 44.0846 152.145 45.7773ZM173.336 47.3398C173.271 47.4701 172.49 47.7305 170.992 48.1211C169.495 48.5117 167.704 48.9349 165.621 49.3906C163.538 49.7812 161.324 50.2044 158.98 50.6602C156.637 51.0508 154.618 51.3763 152.926 51.6367C153.251 54.2409 153.642 56.5846 154.098 58.668C154.553 60.6862 154.944 61.9557 155.27 62.4766C155.595 62.9323 156.018 63.3555 156.539 63.7461C156.995 64.0716 157.548 64.3971 158.199 64.7227C158.915 64.9831 159.762 65.1784 160.738 65.3086C161.454 65.5039 162.138 65.2435 162.789 64.5273C163.31 63.8763 163.766 62.737 164.156 61.1094C164.612 59.4818 164.84 56.9102 164.84 53.3945C166.858 53.069 168.421 52.8737 169.527 52.8086C170.699 52.7435 171.546 52.7435 172.066 52.8086C172.717 52.8737 173.108 52.9714 173.238 53.1016C173.303 53.2969 173.303 53.7852 173.238 54.5664C173.173 55.3477 173.01 56.3242 172.75 57.4961C172.555 58.6029 172.294 59.8398 171.969 61.207C171.708 62.5091 171.383 63.7786 170.992 65.0156C170.602 66.1875 170.178 67.2617 169.723 68.2383C169.267 69.1497 168.779 69.8008 168.258 70.1914C166.695 71.3633 164.742 71.9492 162.398 71.9492C160.055 71.8841 157.743 71.5586 155.465 70.9727C153.186 70.3216 151.135 69.5729 149.312 68.7266C147.49 67.8151 146.35 67.0664 145.895 66.4805C145.569 66.0898 145.276 65.1133 145.016 63.5508C144.755 61.9232 144.527 59.9701 144.332 57.6914C144.202 55.4128 144.104 52.9062 144.039 50.1719C143.974 47.4375 144.007 44.7682 144.137 42.1641C144.332 39.5599 144.592 37.151 144.918 34.9375C145.309 32.724 145.829 30.9336 146.48 29.5664C147.457 27.6133 149.052 26.0182 151.266 24.7812C153.479 23.5443 155.823 22.6979 158.297 22.2422C160.771 21.7865 163.115 21.7214 165.328 22.0469C167.607 22.3724 169.299 23.0885 170.406 24.1953C171.057 24.8464 171.643 26.1484 172.164 28.1016C172.685 29.9896 173.01 32.3008 173.141 35.0352C173.141 35.2956 173.173 36.0443 173.238 37.2812C173.303 38.5182 173.336 39.8529 173.336 41.2852C173.401 42.6523 173.434 43.9544 173.434 45.1914C173.434 46.4284 173.401 47.1445 173.336 47.3398ZM200.875 20.7773C201.396 21.1029 201.884 21.7539 202.34 22.7305C202.861 23.6419 203.316 24.7161 203.707 25.9531C204.163 27.125 204.521 28.3945 204.781 29.7617C205.107 31.1289 205.367 32.3984 205.562 33.5703C205.823 34.7422 205.986 35.7513 206.051 36.5977C206.116 37.3789 206.116 37.8672 206.051 38.0625C205.921 38.3229 205.53 38.5833 204.879 38.8438C204.293 39.1042 203.414 39.3971 202.242 39.7227C201.07 40.0482 199.443 40.4062 197.359 40.7969C197.229 37.2161 196.969 34.5143 196.578 32.6914C196.188 30.8034 195.764 29.4688 195.309 28.6875C194.788 27.776 194.234 27.3203 193.648 27.3203C193.062 27.5807 192.542 27.9062 192.086 28.2969C191.63 28.6224 191.24 28.9805 190.914 29.3711C190.523 29.8268 190.165 30.3151 189.84 30.8359C189.71 31.0312 189.579 31.487 189.449 32.2031C189.319 32.9193 189.189 33.9935 189.059 35.4258C189.059 35.8815 189.026 36.8255 188.961 38.2578C188.961 39.6901 188.928 41.3503 188.863 43.2383C188.863 45.1263 188.831 47.112 188.766 49.1953C188.766 51.2786 188.733 53.2318 188.668 55.0547C188.668 56.8125 188.635 58.3099 188.57 59.5469C188.57 60.7839 188.538 61.5 188.473 61.6953C188.342 62.0208 188.017 62.4766 187.496 63.0625C186.975 63.6484 186.389 64.2018 185.738 64.7227C185.087 65.1784 184.469 65.569 183.883 65.8945C183.297 66.1549 182.906 66.1224 182.711 65.7969C182.516 65.6016 182.32 64.7552 182.125 63.2578C181.93 61.7604 181.702 59.9375 181.441 57.7891C181.246 55.5755 181.018 53.1667 180.758 50.5625C180.497 47.9583 180.27 45.4518 180.074 43.043C179.879 40.6341 179.716 38.4857 179.586 36.5977C179.456 34.6445 179.358 33.2448 179.293 32.3984C179.228 31.1615 179.163 29.7943 179.098 28.2969C179.033 26.7995 178.967 25.3997 178.902 24.0977C178.902 22.7305 178.902 21.5586 178.902 20.582C178.967 19.5404 179.098 18.9219 179.293 18.7266C179.423 18.5312 179.846 18.4987 180.562 18.6289C181.344 18.694 182.158 18.8893 183.004 19.2148C183.915 19.4753 184.762 19.8333 185.543 20.2891C186.324 20.7448 186.845 21.168 187.105 21.5586C187.301 21.8841 187.496 22.3724 187.691 23.0234C188.928 22.3724 190.1 21.7865 191.207 21.2656C192.379 20.6797 193.486 20.2565 194.527 19.9961C195.634 19.7357 196.708 19.6706 197.75 19.8008C198.792 19.8659 199.833 20.1914 200.875 20.7773ZM237.789 25.9531C237.854 26.6693 237.724 27.776 237.398 29.2734C237.138 30.7708 236.715 32.2682 236.129 33.7656C235.608 35.263 234.892 36.5651 233.98 37.6719C233.134 38.7786 232.158 39.332 231.051 39.332C230.27 39.332 229.618 38.7135 229.098 37.4766C228.642 36.2396 228.284 34.8073 228.023 33.1797C227.828 31.487 227.665 29.8268 227.535 28.1992C227.405 26.5716 227.275 25.4323 227.145 24.7812C226.949 24.4557 226.559 24.1628 225.973 23.9023C225.452 23.5768 224.931 23.4141 224.41 23.4141C223.889 23.4141 223.303 23.8372 222.652 24.6836C222.001 25.5299 221.35 26.5065 220.699 27.6133C220.113 28.7201 219.592 29.8268 219.137 30.9336C218.746 32.0404 218.583 32.8542 218.648 33.375C218.648 33.7656 219.072 34.4492 219.918 35.4258C220.764 36.4023 221.806 37.5742 223.043 38.9414C224.345 40.2435 225.712 41.6758 227.145 43.2383C228.642 44.7357 230.009 46.2656 231.246 47.8281C232.483 49.3255 233.525 50.7578 234.371 52.125C235.283 53.4922 235.771 54.6641 235.836 55.6406C235.901 56.8125 235.576 58.3099 234.859 60.1328C234.208 61.9557 233.362 63.7135 232.32 65.4062C231.279 67.099 230.172 68.5638 229 69.8008C227.828 71.0378 226.786 71.6888 225.875 71.7539C224.964 71.819 223.629 71.3307 221.871 70.2891C220.178 69.1823 218.453 67.9128 216.695 66.4805C215.003 64.9831 213.473 63.5182 212.105 62.0859C210.803 60.6536 210.055 59.612 209.859 58.9609C209.664 58.375 209.534 57.5938 209.469 56.6172C209.469 55.6406 209.501 54.6641 209.566 53.6875C209.697 52.7109 209.892 51.8971 210.152 51.2461C210.413 50.5299 210.738 50.1719 211.129 50.1719C211.52 50.1719 212.301 50.8555 213.473 52.2227C214.645 53.5247 215.914 55.0221 217.281 56.7148C218.648 58.3424 219.983 59.8398 221.285 61.207C222.587 62.5091 223.531 63.1602 224.117 63.1602C224.443 63.1602 224.801 62.9323 225.191 62.4766C225.582 61.9557 225.94 61.3698 226.266 60.7188C226.591 60.0677 226.852 59.4167 227.047 58.7656C227.307 58.0495 227.438 57.4961 227.438 57.1055C227.372 56.5195 226.852 55.6732 225.875 54.5664C224.898 53.4596 223.661 52.2227 222.164 50.8555C220.667 49.4883 219.039 48.056 217.281 46.5586C215.523 44.9961 213.896 43.5312 212.398 42.1641C210.901 40.7969 209.664 39.5599 208.688 38.4531C207.711 37.3464 207.19 36.5 207.125 35.9141C207.06 35.3281 207.255 34.4167 207.711 33.1797C208.167 31.8776 208.753 30.4779 209.469 28.9805C210.185 27.418 210.999 25.8229 211.91 24.1953C212.887 22.5677 213.863 21.0703 214.84 19.7031C215.816 18.3359 216.76 17.2292 217.672 16.3828C218.648 15.4714 219.495 15.0156 220.211 15.0156C221.643 15.0156 223.336 15.4062 225.289 16.1875C227.307 16.9688 229.228 17.9453 231.051 19.1172C232.874 20.224 234.436 21.3958 235.738 22.6328C237.04 23.8698 237.724 24.9766 237.789 25.9531Z" fill="black"/>
</svg>
